# AST/ASF file generated using VICON BodyLanguage
# -----------------------------------------------
:version 1.10
:name VICON
:units
  mass 1.0
  length 0.45
  angle deg
:documentation
   .ast/.asf automatically generated from VICON data using
   VICON BodyBuilder and BodyLanguage model FoxedUp or BRILLIANT.MOD
:root
   order TX TY TZ RX RY RZ
   axis XYZ
   position 0 0 0  
   orientation 0 0 0 
:bonedata
  begin
     id 1 
     name lhipjoint
     direction 0.650112 -0.723553 0.232005 
     length 2.45805 
     axis 0 0 0  XYZ
  end
  begin
     id 2 
     name lfemur
     direction 0.34202 -0.939693 0  
     length 7.00073  
     axis 0 0 20  XYZ
    dof rx ry rz
    limits (-160.0 20.0)
           (-70.0 70.0)
           (-60.0 70.0)
  end
  begin
     id 3 
     name ltibia
     direction 0.34202 -0.939693 0   
     length 7.8748   
     axis 0 0 20   XYZ
    dof rx
    limits (-10.0 170.0)
  end
  begin
     id 4 
     name lfoot
     direction 0.0542825 -0.14914 0.987325   
     length 1.75978   
     axis -90 7.62852e-016 20   XYZ
    dof rx rz
    limits (-45.0 90.0)
           (-70.0 20.0)
  end
  begin
     id 5 
     name ltoes
     direction 1.53509e-011 -4.21906e-011 1   
     length 0.893912   
     axis -90 7.62852e-016 20   XYZ
    dof rx
    limits (-90.0 20.0)
  end
  begin
     id 6 
     name rhipjoint
     direction -0.637897 -0.733345 0.235145   
     length 2.42522  
     axis 0 0 0  XYZ 
  end
  begin
     id 7 
     name rfemur
     direction -0.34202 -0.939693 0   
     length 7.02549   
     axis 0 0 -20   XYZ
    dof rx ry rz
    limits (-160.0 20.0)
           (-70.0 70.0)
           (-70.0 60.0)
  end
  begin
     id 8 
     name rtibia
     direction -0.34202 -0.939693 0   
     length 7.71512   
     axis 0 0 -20   XYZ
    dof rx
    limits (-10.0 170.0)
 end
 begin
     id 9 
     name rfoot
     direction -0.0822618 -0.226012 0.970645   
     length 1.90014  
     axis -90 -7.62852e-016 -20   XYZ
    dof rx rz
    limits (-45.0 90.0)
           (-20.0 70.0)
  end
  begin
     id 10 
     name rtoes
     direction -1.53542e-011 -4.21872e-011 1   
     length 0.957341   
     axis -90 -7.62852e-016 -20   XYZ
    dof rx
    limits (-90.0 20.0)
  end
  begin
     id 11 
     name lowerback
     direction -0.0022947 0.999774 -0.0211557   
     length 1.89909   
     axis 0 0 0   XYZ
    dof rx ry rz
    limits (-20.0 45.0)
           (-30.0 30.0)
           (-30.0 30.0)
  end
  begin
     id 12 
     name upperback
     direction 0.0107737 0.998635 0.0511027   
     length 1.8853   
     axis 0 0 0   XYZ
    dof rx ry rz
    limits (-20.0 45.0)
           (-30.0 30.0)
           (-30.0 30.0)
  end
  begin
     id 13 
     name thorax
     direction 0.011824 0.998136 0.0598754   
     length 1.88911   
     axis 0 0 0   XYZ
    dof rx ry rz
    limits (-20.0 45.0)
           (-30.0 30.0)
           (-30.0 30.0)
  end
  begin
     id 14 
     name lowerneck
     direction -0.0685355 0.990319 0.120714   
     length 1.91222   
     axis 0 0 0   XYZ
    dof rx ry rz
    limits (-20.0 45.0)
           (-30.0 30.0)
           (-30.0 30.0)
  end
  begin
     id 15 
     name upperneck
     direction 0.0886204 0.955665 -0.280805   
     length 1.92526   
     axis 0 0 0   XYZ
    dof rx ry rz
    limits (-20.0 45.0)
           (-30.0 30.0)
           (-30.0 30.0)
  end
  begin
     id 16
     name head
     direction 0.0233423 0.993502 -0.111393  
     length 1.96056  
     axis 0 0 0   XYZ
    dof rx ry rz
    limits (-20.0 45.0)
           (-30.0 30.0)
           (-30.0 30.0)
  end
  begin
     id 17 
     name lclavicle
     direction 0.941873 0.32922 0.0670041  
     length 3.31705  
     axis 0 0 0   XYZ
    dof ry rz
    limits (-20.0 10.0)
           (0.0 20.0)
  end
  begin
     id 18 
     name lhumerus
     direction 1 -4.4898e-011 3.38707e-028   
     length 5.29277   
     axis 180 -30 -90   XYZ
    dof rx ry rz
    limits (-60.0 90.0)
           (-90.0 90.0)
           (-90.0 90.0)
  end
  begin
     id 19
     name lradius
     direction 1 -4.48952e-011 1.63213e-028   
     length 2.85226   
     axis 180 -30 -90   XYZ
    dof rx
    limits (-10.0 170.0)
  end
  begin
     id 20
     name lwrist
     direction 1 -4.49001e-011 1.27856e-027   
     length 1.42613   
     axis -1.61767e-015 90 90   XYZ
    dof ry
    limits (-180.0 0.0)
 end
  begin
     id 21 
     name lhand
     direction 1 -4.48976e-011 2.55931e-027   
     length 0.602097   
     axis -1.63363e-015 90 90   XYZ
    dof rx rz
    limits (-90.0 90.0)
           (-45.0 45.0)
  end
  begin
     id 22 
     name lfingers
     direction 1 -4.48986e-011 5.11684e-027   
     length 0.485426   
     axis -3.26723e-015 90 90   XYZ
    dof rx
    limits (0.0 90.0)
  end
  begin
     id 23
     name lthumb
     direction 0.707107 -6.34915e-011 0.707107   
     length 0.696978   
     axis -90 45 -2.25915e-014   XYZ
    dof rx rz
    limits (-45.0 45.0)
           (-45.0 45.0)
  end
  begin
     id 24 
     name rclavicle
     direction -0.939974 0.327078 0.0973096   
     length 3.10337  
     axis 0 0 0   XYZ 
    dof ry rz
    limits (-10.0 20.0)
           (-20.0 0.0)
  end
  begin
     id 25 
     name rhumerus
     direction -1 -4.48975e-011 1.83745e-027  
     length 5.13304   
     axis 180 30 90   XYZ
    dof rx ry rz
    limits (-90.0 60.0)
           (-90.0 90.0)
           (-90.0 90.0)
  end
  begin
     id 26 
     name rradius
     direction -1 -4.48977e-011 7.1775e-029   
     length 2.74305   
     axis 180 30 90   XYZ
    dof rx
    limits (-10.0 170.0)
  end
  begin
     id 27 
     name rwrist
     direction -1 -4.48977e-011 1.27963e-027   
     length 1.37152   
     axis -1.61767e-015 -90 -90   XYZ
    dof ry
    limits (-180.0 0.0)
  end
  begin
     id 28
     name rhand
     direction -1 -4.4888e-011 2.56782e-027   
     length 0.767976   
     axis -1.63363e-015 -90 -90   XYZ
    dof rx rz
    limits (-90.0 90.0)
           (-45.0 45.0)
  end
  begin
     id 29
     name rfingers
     direction -1 -4.48947e-011 5.12384e-027   
     length 0.619162   
     axis -3.26723e-015 -90 -90   XYZ
    dof rx
    limits (0.0 90.0)
  end
  begin
     id 30
     name rthumb
     direction -0.707107 -6.34857e-011 0.707107   
     length 0.888997   
     axis -90 -45 2.25915e-014   XYZ
    dof rx rz
    limits (-45.0 45.0)
           (-45.0 45.0)
  end
:hierarchy
  begin
    root lhipjoint rhipjoint lowerback
    lhipjoint lfemur
    lfemur ltibia
    ltibia lfoot
    lfoot ltoes
    rhipjoint rfemur
    rfemur rtibia
    rtibia rfoot
    rfoot rtoes
    lowerback upperback
    upperback thorax
    thorax lowerneck lclavicle rclavicle
    lowerneck upperneck
    upperneck head
    lclavicle lhumerus
    lhumerus lradius
    lradius lwrist
    lwrist lhand lthumb
    lhand lfingers
    rclavicle rhumerus
    rhumerus rradius
    rradius rwrist
    rwrist rhand rthumb
    rhand rfingers
  end

#!OML:ASF F:\VICON\USERDATA\INSTALL\rory3\rory3.ASF
:FULLY-SPECIFIED
:DEGREES
1435
root 1.56379 16.3229 -1.39743 30.9113 -48.9075 -8.04052
lowerback 17.8793 -6.01552 -5.0057
upperback 3.57812 -8.85436 -0.084271
thorax -5.32261 -4.27667 4.6035
lowerneck -16.8641 -6.09327 -8.97461
upperneck 24.9652 -9.61174 11.6147
head 12.0339 -3.89611 4.33364
rclavicle -3.02153e-014 -9.54166e-015
rhumerus -90.4179 -51.4908 61.3057
rradius 19.1198
rwrist 50.7808
rhand -14.2273 5.07441
rfingers 7.12502
rthumb 11.9099 -24.5668
lclavicle -3.02153e-014 -9.54166e-015
lhumerus -54.4286 79.2812 -33.2071
lradius 16.4446
lwrist -34.896
lhand -3.39823 29.728
lfingers 7.12502
lthumb 22.3317 58.4574
rfemur -58.7581 16.7774 11.1584
rtibia 38.1826
rfoot -5.86393 25.7375
rtoes 14.2774
lfemur -54.4304 25.8521 -30.9445
ltibia 54.5257
lfoot -28.7791 12.3566
ltoes -9.58342
1436
root 1.51611 16.3224 -1.43783 31.0885 -48.4177 -8.40262
lowerback 17.7578 -5.94806 -5.49215
upperback 3.58247 -8.86669 -0.365446
thorax -5.22421 -4.28101 4.55711
lowerneck -17.0941 -6.19205 -8.89559
upperneck 25.0557 -9.86052 11.899
head 12.1636 -3.95997 4.38546
rclavicle -8.5875e-014 0
rhumerus -91.3043 -51.7117 62.7318
rradius 19.1186
rwrist 52.2848
rhand -14.2791 5.05664
rfingers 7.12502
rthumb 11.86 -24.5875
lclavicle -8.5875e-014 0
lhumerus -56.3111 79.7334 -34.9389
lradius 16.3587
lwrist -35.71
lhand -3.58246 29.7388
lfingers 7.12502
lthumb 22.1549 58.4894
rfemur -58.547 16.8224 11.7923
rtibia 38.114
rfoot -5.84632 25.5429
rtoes 14.1954
lfemur -54.426 25.8412 -30.2338
ltibia 54.7026
lfoot -28.8058 12.0675
ltoes -9.11485
1437
root 1.46656 16.3286 -1.47619 31.1224 -47.8384 -8.6515
lowerback 17.683 -5.90554 -5.97778
upperback 3.60448 -8.90628 -0.562998
thorax -5.11457 -4.29985 4.60705
lowerneck -17.357 -6.33803 -9.16991
upperneck 25.0828 -10.1023 12.3276
head 12.3059 -4.03522 4.55371
rclavicle -3.97569e-014 -1.59028e-014
rhumerus -91.0851 -51.8883 62.9529
rradius 19.1145
rwrist 52.8492
rhand -14.3432 5.05463
rfingers 7.12502
rthumb 11.7981 -24.593
lclavicle -3.97569e-014 -1.59028e-014
lhumerus -59.6433 80.2009 -37.9727
lradius 16.2271
lwrist -36.5767
lhand -3.99193 29.1851
lfingers 7.12502
lthumb 21.7617 57.9817
rfemur -58.225 16.8097 12.3944
rtibia 38.0185
rfoot -5.87101 25.3089
rtoes 14.2035
lfemur -54.2943 25.7562 -29.5175
ltibia 54.8145
lfoot -28.7621 11.7589
ltoes -8.76055
1438
root 1.41611 16.3332 -1.51252 31.3592 -47.134 -9.19754
lowerback 17.5324 -5.91107 -6.18742
upperback 3.64178 -8.95301 -0.77922
thorax -4.99278 -4.32695 4.47939
lowerneck -17.4366 -6.43123 -9.26455
upperneck 25.0581 -10.3313 12.7481
head 12.38 -4.09837 4.69151
rclavicle 1.59028e-014 3.18055e-015
rhumerus -90.7232 -52.0826 62.9169
rradius 19.0559
rwrist 53.3758
rhand -14.4675 5.30387
rfingers 7.12502
rthumb 11.6783 -24.3507
lclavicle 1.59028e-014 3.18055e-015
lhumerus -59.8861 80.2005 -38.0386
lradius 16.1585
lwrist -36.6553
lhand -4.07557 28.8552
lfingers 7.12502
lthumb 21.6814 57.6612
rfemur -57.8165 16.8044 13.2717
rtibia 37.8711
rfoot -6.10346 25.0256
rtoes 13.5787
lfemur -54.1603 25.6707 -28.5168
ltibia 54.9159
lfoot -28.6844 11.468
ltoes -8.39903
1439
root 1.3651 16.3413 -1.54725 31.4863 -46.4122 -9.57581
lowerback 17.2915 -5.85341 -6.34202
upperback 3.73643 -8.90978 -1.17138
thorax -4.80932 -4.31581 4.10725
lowerneck -17.5192 -6.5889 -8.97044
upperneck 24.9986 -10.7638 13.1449
head 12.4475 -4.21961 4.71429
rclavicle 9.54166e-015 6.67916e-014
rhumerus -90.9021 -51.9646 63.1883
rradius 19.0474
rwrist 53.7124
rhand -14.7569 5.72441
rfingers 7.12502
rthumb 11.3992 -23.9457
lclavicle 9.54166e-015 6.67916e-014
lhumerus -53.5106 79.7282 -31.5513
lradius 16.1939
lwrist -35.4336
lhand -4.32585 29.1089
lfingers 7.12502
lthumb 21.441 57.9424
rfemur -57.4074 16.6765 14.0601
rtibia 37.7104
rfoot -5.99761 24.8657
rtoes 14.2076
lfemur -54.0125 25.5154 -27.6313
ltibia 54.9708
lfoot -28.5842 11.1445
ltoes -7.86568
